<svg width="24" height="34" viewBox="0 0 24 34" fill="none" xmlns="http://www.w3.org/2000/svg">
<g id="Group 1000001791">
<path id="Vector 1" d="M22.2701 22.8467C19.0448 30.102 9.84001 39.1044 1.98017 23.0103C1.37318 21.7674 1.7758 20.2483 2.95883 19.5316C11.6271 14.2802 18.63 17.9107 21.5117 19.9754C22.4292 20.6328 22.7287 21.8153 22.2701 22.8467Z" stroke="#B9B9B9" stroke-width="3"/>
<path id="Vector" fill-rule="evenodd" clip-rule="evenodd" d="M18.5454 6.77889C18.5454 8.57676 17.8312 10.301 16.5599 11.5723C15.2886 12.8436 13.5644 13.5578 11.7665 13.5578C9.96863 13.5578 8.24439 12.8436 6.9731 11.5723C5.70181 10.301 4.98761 8.57676 4.98761 6.77889C4.98761 4.98102 5.70181 3.25678 6.9731 1.98549C8.24439 0.714202 9.96863 0 11.7665 0C13.5644 0 15.2886 0.714202 16.5599 1.98549C17.8312 3.25678 18.5454 4.98102 18.5454 6.77889ZM15.1559 6.77889C15.1559 7.67782 14.7988 8.53994 14.1632 9.17559C13.5276 9.81123 12.6654 10.1683 11.7665 10.1683C10.8676 10.1683 10.0054 9.81123 9.3698 9.17559C8.73416 8.53994 8.37705 7.67782 8.37705 6.77889C8.37705 5.87995 8.73416 5.01783 9.3698 4.38219C10.0054 3.74655 10.8676 3.38944 11.7665 3.38944C12.6654 3.38944 13.5276 3.74655 14.1632 4.38219C14.7988 5.01783 15.1559 5.87995 15.1559 6.77889Z" fill="#B9B9B9"/>
</g>
</svg>
