<svg width="41" height="42" viewBox="0 0 41 42" fill="none" xmlns="http://www.w3.org/2000/svg">
<path d="M33.8557 28.2199C29.9557 37.4624 18.0322 49.5607 7.96548 28.3044C7.37345 27.0543 7.78031 25.5461 8.94841 24.8053C20.4536 17.5089 29.6993 22.7705 33.0972 25.3242C33.9995 26.0023 34.2945 27.1799 33.8557 28.2199Z" stroke="#B9B9B9" stroke-width="3"/>
<path fill-rule="evenodd" clip-rule="evenodd" d="M29 8.5C29 10.7543 28.1045 12.9163 26.5104 14.5104C24.9163 16.1045 22.7543 17 20.5 17C18.2457 17 16.0837 16.1045 14.4896 14.5104C12.8955 12.9163 12 10.7543 12 8.5C12 6.24566 12.8955 4.08365 14.4896 2.48959C16.0837 0.895533 18.2457 0 20.5 0C22.7543 0 24.9163 0.895533 26.5104 2.48959C28.1045 4.08365 29 6.24566 29 8.5ZM24.75 8.5C24.75 9.62717 24.3022 10.7082 23.5052 11.5052C22.7082 12.3022 21.6272 12.75 20.5 12.75C19.3728 12.75 18.2918 12.3022 17.4948 11.5052C16.6978 10.7082 16.25 9.62717 16.25 8.5C16.25 7.37283 16.6978 6.29183 17.4948 5.4948C18.2918 4.69777 19.3728 4.25 20.5 4.25C21.6272 4.25 22.7082 4.69777 23.5052 5.4948C24.3022 6.29183 24.75 7.37283 24.75 8.5Z" fill="#B9B9B9"/>
</svg>
