<svg width="16" height="14" viewBox="0 0 16 14" fill="none" xmlns="http://www.w3.org/2000/svg">
<path fill-rule="evenodd" clip-rule="evenodd" d="M5.96721 9.41404C8.53851 9.41404 10.623 7.56681 10.623 5.28814C10.623 3.00946 8.53851 1.16223 5.96721 1.16223C3.39592 1.16223 1.31148 3.00946 1.31148 5.28814C1.31148 7.56681 3.39592 9.41404 5.96721 9.41404ZM5.96721 10.5763C9.26282 10.5763 11.9344 8.20869 11.9344 5.28814C11.9344 2.36758 9.26282 0 5.96721 0C2.67161 0 0 2.36758 0 5.28814C0 8.20869 2.67161 10.5763 5.96721 10.5763Z" fill="white"/>
<path fill-rule="evenodd" clip-rule="evenodd" d="M14.8806 13.5441L9.11009 8.43028L10.0374 7.60846L15.8079 12.7223C16.064 12.9492 16.064 13.3171 15.8079 13.5441C15.5519 13.771 15.1367 13.771 14.8806 13.5441Z" fill="white"/>
</svg>
