<svg width="45" height="45" viewBox="0 0 45 45" fill="none" xmlns="http://www.w3.org/2000/svg">
<path d="M0 2.5C0 2.10218 0.158035 1.72064 0.43934 1.43934C0.720644 1.15804 1.10218 1 1.5 1H6C6.33459 1.00009 6.65955 1.11205 6.92319 1.31807C7.18684 1.5241 7.37403 1.81235 7.455 2.137L8.67 7H43.5C43.7278 7.00006 43.9527 7.05203 44.1574 7.15196C44.3622 7.25189 44.5415 7.39715 44.6818 7.57672C44.822 7.75629 44.9195 7.96545 44.9668 8.18832C45.0142 8.4112 45.0101 8.64193 44.955 8.863L40.455 26.863C40.374 27.1876 40.1868 27.4759 39.9232 27.6819C39.6596 27.8879 39.3346 27.9999 39 28H12C11.6654 27.9999 11.3404 27.8879 11.0768 27.6819C10.8132 27.4759 10.626 27.1876 10.545 26.863L4.83 4H1.5C1.10218 4 0.720644 3.84196 0.43934 3.56066C0.158035 3.27936 0 2.89782 0 2.5ZM9.42 10L13.17 25H37.83L41.58 10H9.42ZM15 34C14.2044 34 13.4413 34.3161 12.8787 34.8787C12.3161 35.4413 12 36.2044 12 37C12 37.7956 12.3161 38.5587 12.8787 39.1213C13.4413 39.6839 14.2044 40 15 40C15.7956 40 16.5587 39.6839 17.1213 39.1213C17.6839 38.5587 18 37.7956 18 37C18 36.2044 17.6839 35.4413 17.1213 34.8787C16.5587 34.3161 15.7956 34 15 34ZM9 37C9 35.4087 9.63214 33.8826 10.7574 32.7574C11.8826 31.6321 13.4087 31 15 31C16.5913 31 18.1174 31.6321 19.2426 32.7574C20.3679 33.8826 21 35.4087 21 37C21 38.5913 20.3679 40.1174 19.2426 41.2426C18.1174 42.3679 16.5913 43 15 43C13.4087 43 11.8826 42.3679 10.7574 41.2426C9.63214 40.1174 9 38.5913 9 37ZM36 34C35.2044 34 34.4413 34.3161 33.8787 34.8787C33.3161 35.4413 33 36.2044 33 37C33 37.7956 33.3161 38.5587 33.8787 39.1213C34.4413 39.6839 35.2044 40 36 40C36.7956 40 37.5587 39.6839 38.1213 39.1213C38.6839 38.5587 39 37.7956 39 37C39 36.2044 38.6839 35.4413 38.1213 34.8787C37.5587 34.3161 36.7956 34 36 34ZM30 37C30 35.4087 30.6321 33.8826 31.7574 32.7574C32.8826 31.6321 34.4087 31 36 31C37.5913 31 39.1174 31.6321 40.2426 32.7574C41.3679 33.8826 42 35.4087 42 37C42 38.5913 41.3679 40.1174 40.2426 41.2426C39.1174 42.3679 37.5913 43 36 43C34.4087 43 32.8826 42.3679 31.7574 41.2426C30.6321 40.1174 30 38.5913 30 37Z" fill="#B9B9B9"/>
</svg>
